<svg xmlns="http://www.w3.org/2000/svg" width="240" height="340" viewBox="0 0 240 340"><defs>
  <linearGradient id="gold" x2=".75" y2="1"><stop stop-color="#fff0ba"/><stop offset=".48" stop-color="#fff0ba"/><stop offset="1" stop-color="#b98743"/></linearGradient><linearGradient id="ivory" x2=".75" y2="1"><stop stop-color="#fffef2"/><stop offset=".48" stop-color="#fffef2"/><stop offset="1" stop-color="#d8c8ba"/></linearGradient>
  <linearGradient id="teal" x2=".75" y2="1"><stop stop-color="#b6d8ca"/><stop offset=".48" stop-color="#b6d8ca"/><stop offset="1" stop-color="#719e92"/></linearGradient><linearGradient id="water" x2=".75" y2="1"><stop stop-color="#d4f8ef"/><stop offset=".48" stop-color="#d4f8ef"/><stop offset="1" stop-color="#8dc6cf"/></linearGradient>
  <linearGradient id="rose" x2=".75" y2="1"><stop stop-color="#e9b6b2"/><stop offset=".48" stop-color="#e9b6b2"/><stop offset="1" stop-color="#b47785"/></linearGradient><linearGradient id="wood" x2=".75" y2="1"><stop stop-color="#d5ad89"/><stop offset=".48" stop-color="#d5ad89"/><stop offset="1" stop-color="#936d55"/></linearGradient>
  <linearGradient id="sky" x2=".75" y2="1"><stop stop-color="#d9e8df"/><stop offset=".48" stop-color="#d9e8df"/><stop offset="1" stop-color="#ffedcc"/></linearGradient>
  <filter id="shadow" x="-.3" y="-.3" width="1.6" height="1.7"><feDropShadow dy="4" stdDeviation="3" flood-color="#765747" flood-opacity=".16"/></filter>
  <pattern id="paper" width="103" height="99" patternUnits="userSpaceOnUse"><path d="M12 13h3m56 31h2m12 44h4M20 64h3m31-45h3" stroke="#8a6958" stroke-width=".7" opacity=".1"/><circle cx="87" cy="8" r=".7" fill="#fff" opacity=".3"/></pattern>
  <pattern id="wallpaper" width="62" height="64" patternUnits="userSpaceOnUse"><path d="M31 11q-10 10 0 23q10-13 0-23m0 25q-10 10 0 20q10-10 0-20" fill="none" stroke="#bf937c" opacity=".22"/></pattern>
  <g id="sun" fill="none" stroke="#b98a48" stroke-width="1.4"><circle r="9" fill="#f9d791"/><path d="M0-17v5M0 12v5M-17 0h5M12 0h5M-12-12l4 4M8 8l4 4M12-12l-4 4M-8 8l-4 4"/></g>
  <g id="flower"><path d="M0 10v25m0-12q-14-11-17-2q7 10 17 5m0-9q12-11 16-4q-3 10-16 10" fill="#9fb39a" stroke="#768f78" stroke-width="1.4"/><g fill="#e7a4a7" stroke="#c7838c"><ellipse cy="-7" rx="8" ry="12"/><ellipse cx="8" rx="12" ry="8"/><ellipse cy="7" rx="8" ry="12"/><ellipse cx="-8" rx="12" ry="8"/></g><circle r="6" fill="#f4d69a"/></g>
  <g id="chair" stroke="#b18756" stroke-width="2"><path d="M20 100V38Q20-3 60 0q40 3 40 38v62" fill="url(#gold)"/><path d="M29 85V39q0-27 31-28q31 1 31 28v46Z" fill="#d8999b"/><path d="m36 34 49 44m-8-53L38 66" fill="none" stroke="#b5757e" opacity=".4"/><circle cx="60" cy="44" r="3" fill="#f4c4b2"/><path d="M17 91q43-13 86 0v15H17z" fill="url(#ivory)"/><path d="m25 107-7 65m77-65 7 65" fill="none" stroke-width="7"/></g>
  <g id="plant"><path d="M-20-44q-36-58-51-30q-13 24 48 33m28-38q25-57 48-38q26 24-48 41m-8 25q-6-54 10-79q25 22 1 75" fill="#8ba68b" stroke="#657f6f" stroke-width="2"/><path d="M-30-3h59l-9 65h-40Z" fill="#d9aa8f" stroke="#b98872" stroke-width="2"/><path d="M-35-8h69v15h-69Z" fill="#e4bb9e" stroke="#b98872" stroke-width="2"/><use href="#flower" x="-13" y="-27"/><use href="#flower" x="13" y="-33"/></g>
  <g id="plate"><ellipse rx="37" ry="10" fill="#dfcec1"/><ellipse cy="-3" rx="37" ry="10" fill="#fff9e7" stroke="#d6b16f" stroke-width="1.5"/><ellipse cy="-4" rx="24" ry="6" fill="none" stroke="#e4d9c5"/></g><linearGradient id="hair" x2=".75" y2="1"><stop stop-color="#694539"/><stop offset=".48" stop-color="#694539"/><stop offset="1" stop-color="#2d2631"/></linearGradient><linearGradient id="dress" x2=".75" y2="1"><stop stop-color="#c1d8f1"/><stop offset=".48" stop-color="#c1d8f1"/><stop offset="1" stop-color="#5d79a9"/></linearGradient><radialGradient id="skin" cx=".38" cy=".33" r=".8"><stop stop-color="#bf8c69"/><stop offset="1" stop-color="#865749"/></radialGradient></defs><g stroke-linecap="round" stroke-linejoin="round"><path d="M86 298v17q-17 9-12 18q16 8 40-2v-33" fill="url(#skin)" stroke="#b88976" stroke-width="1.5"/><path d="M87 316q-20 4-13 16q16 8 40-2v-14" fill="#ad6b66" stroke="#8e595b" stroke-width="1.8"/></g></svg>