<svg xmlns="http://www.w3.org/2000/svg" viewBox="0 0 200 200">
  <defs>
    <linearGradient id="mttSky" x1="0%" y1="0%" x2="0%" y2="100%">
      <stop offset="0%" stop-color="#0b1f3a"/>
      <stop offset="100%" stop-color="#1a3a64"/>
    </linearGradient>
    <linearGradient id="mttGround" x1="0%" y1="0%" x2="0%" y2="100%">
      <stop offset="0%" stop-color="#5b4a34"/>
      <stop offset="100%" stop-color="#3b3123"/>
    </linearGradient>
    <linearGradient id="mttGlow" x1="0%" y1="0%" x2="100%" y2="0%">
      <stop offset="0%" stop-color="#ffe58a" stop-opacity="0"/>
      <stop offset="50%" stop-color="#ffe58a" stop-opacity="0.55"/>
      <stop offset="100%" stop-color="#ffe58a" stop-opacity="0"/>
    </linearGradient>
  </defs>

  <rect width="200" height="200" rx="20" fill="url(#mttSky)"/>

  <circle cx="156" cy="34" r="16" fill="#ffd36b" opacity="0.9"/>

  <path d="M0 112 C35 100, 78 106, 112 96 C147 86, 178 90, 200 84 L200 200 L0 200 Z" fill="url(#mttGround)"/>
  <path d="M0 120 C34 109, 70 118, 103 108 C139 97, 170 103, 200 95" fill="#8c7454" opacity="0.35"/>

  <rect x="10" y="126" width="180" height="6" rx="3" fill="#c7a97c" opacity="0.22"/>
  <rect x="10" y="126" width="180" height="6" rx="3" fill="url(#mttGlow)"/>

  <g transform="translate(52 110)">
    <ellipse cx="24" cy="34" rx="26" ry="7" fill="#000" opacity="0.35"/>
    <rect x="0" y="18" width="48" height="16" rx="4" fill="#6b7280"/>
    <rect x="4" y="10" width="34" height="12" rx="3" fill="#9ca3af"/>
    <rect x="22" y="12" width="34" height="5" rx="2" fill="#d1d5db"/>
    <circle cx="10" cy="35" r="5" fill="#374151"/>
    <circle cx="24" cy="35" r="5" fill="#374151"/>
    <circle cx="38" cy="35" r="5" fill="#374151"/>
    <rect x="-2" y="7" width="14" height="3" rx="1" fill="#f59e0b"/>
  </g>

  <g transform="translate(112 90)">
    <ellipse cx="35" cy="50" rx="30" ry="8" fill="#000" opacity="0.35"/>
    <rect x="8" y="30" width="54" height="18" rx="4" fill="#4b5563"/>
    <rect x="16" y="20" width="38" height="13" rx="3" fill="#6b7280"/>
    <rect x="-6" y="24" width="42" height="6" rx="2" fill="#93c5fd"/>
    <circle cx="19" cy="49" r="6" fill="#1f2937"/>
    <circle cx="35" cy="49" r="6" fill="#1f2937"/>
    <circle cx="51" cy="49" r="6" fill="#1f2937"/>
    <circle cx="53" cy="21" r="3" fill="#fca5a5"/>
  </g>

  <path d="M96 112 L108 108 L104 124 Z" fill="#ffd36b" opacity="0.9">
    <animate attributeName="opacity" values="0.9;0.2;0.9" dur="0.8s" repeatCount="indefinite"/>
  </path>

  <rect x="14" y="14" width="118" height="28" rx="8" fill="#000" opacity="0.35"/>
  <text x="22" y="33" font-size="13" fill="#fcd34d" font-weight="700">MERGE TANK TACTICS</text>

  <rect x="132" y="14" width="54" height="28" rx="8" fill="#8b1d1d" opacity="0.9"/>
  <text x="159" y="32" font-size="12" fill="#fff" text-anchor="middle" font-weight="700">BATTLE</text>
</svg>
